<svg width="134" height="128" viewBox="0 0 134 128" fill="none" xmlns="http://www.w3.org/2000/svg">
<g clip-path="url(#clip0_1_24)">
<path d="M85.2791 79.588C83.6722 80.168 82.0898 81.043 80.6299 82.156C76.83 84.999 74.5089 88.61 75.446 90.221C76.383 91.831 80.2231 90.832 84.0231 87.989C85.5 86.904 86.8314 85.599 87.9352 84.153C88.4488 83.457 88.5787 82.664 88.2667 82.13L87.0494 80.037C86.7399 79.501 86.0451 79.325 85.2791 79.588Z" fill="#D5D6DB"/>
<path d="M75.9461 45.762C74.781 46.183 73.6334 46.817 72.5748 47.624C69.8201 49.685 68.1362 52.304 68.8151 53.471C69.494 54.638 72.2795 53.912 75.0339 51.851C76.1048 51.065 77.0702 50.118 77.8707 49.07C78.2427 48.565 78.3366 47.991 78.1105 47.603L77.2291 46.088C77.005 45.7 76.5016 45.571 75.9461 45.762Z" fill="#D5D6DB"/>
<path d="M60.9468 49.033C60.6919 49.041 60.4145 49.149 60.1688 49.333L53.6887 54.196C53.1467 54.602 52.9015 55.268 53.1415 55.684C53.1964 55.779 53.2745 55.856 53.3715 55.91L68.202 64.232L89.81 48.017L60.9468 49.033Z" fill="#029BC5"/>
<path d="M126.747 42.434L69.3114 82.5L35.7551 99.121L18.8278 104.492L17.1606 101.826L112.835 36.085C115.686 34.119 118.815 32.725 121.905 32.045C123.258 31.754 124.585 31.616 125.856 31.632C126.982 31.639 128.042 31.802 129.002 32.118C130.074 32.478 132.168 32.252 132.787 33.175C132.789 33.173 134.113 37.614 126.747 42.434Z" fill="#E1E6E9"/>
<path d="M71.2483 80.659L44.8817 121.061C44.5491 121.623 44.6947 122.181 45.2066 122.306C45.5208 122.383 45.9168 122.28 46.2588 122.032L52.64 117.422C53.8673 116.535 54.9702 115.472 55.8806 114.298L105.917 54.794L71.2483 80.659Z" fill="#029BC5"/>
<path d="M8.80921 78.859C8.4037 78.778 7.90764 78.924 7.4776 79.251L2.07804 83.363C1.34233 83.923 1.01073 84.841 1.33716 85.413C1.39936 85.522 1.48293 85.614 1.58526 85.684L15.542 95.331L31.4375 83.408L8.80921 78.859Z" fill="#029BC5"/>
<path d="M21.2131 98.67L12.9443 109.986C12.8233 110.149 12.8389 110.33 12.9792 110.39C13.0804 110.434 13.2238 110.404 13.3442 110.313L18.2651 106.779C18.3033 106.751 18.3384 106.719 18.3679 106.683L30.3345 92.124L21.2131 98.67Z" fill="#029BC5"/>
<path d="M124.38 32.932C123.049 32.912 121.658 33.066 120.24 33.389C118.759 35.469 117.761 37.711 117.344 39.891C117.298 40.324 117.634 40.583 118.093 40.469C118.236 40.434 118.381 40.365 118.512 40.268L127.678 33.475C126.671 33.123 125.561 32.94 124.38 32.932Z" fill="#029BC5"/>
<path d="M104.85 45.182L111.051 40.365L116.102 49.343L109.9 54.159L104.85 45.182Z" fill="#D5D6DB"/>
<path d="M101.259 48.385C100.516 48.963 100.178 49.902 100.505 50.481L101.035 51.42C101.387 51.979 102.267 51.948 102.999 51.35C103.696 50.781 104.015 49.897 103.727 49.326L103.197 48.388C102.87 47.809 102.003 47.807 101.259 48.385Z" fill="#3A556A"/>
<path d="M96.0234 51.859C95.2798 52.437 94.9418 53.376 95.2691 53.955L95.7994 54.894C96.1515 55.453 97.0307 55.422 97.7633 54.824C98.4605 54.255 98.7789 53.371 98.4916 52.8L97.9613 51.862C97.634 51.283 96.7667 51.282 96.0234 51.859Z" fill="#3A556A"/>
<path d="M90.7855 55.337C90.0427 55.916 89.7058 56.853 90.0328 57.432L90.5631 58.371C90.9152 58.93 91.7944 58.899 92.527 58.301C93.2241 57.732 93.5426 56.848 93.2552 56.278L92.725 55.339C92.3977 54.76 91.5295 54.759 90.7855 55.337Z" fill="#3A556A"/>
<path d="M85.5496 58.81C84.8067 59.388 84.4699 60.326 84.7969 60.905L85.3272 61.843C85.6793 62.403 86.5585 62.372 87.2911 61.774C87.9882 61.205 88.3067 60.32 88.0193 59.75L87.4891 58.811C87.1615 58.232 86.2933 58.232 85.5496 58.81Z" fill="#3A556A"/>
<path d="M80.3146 62.287C79.571 62.866 79.2338 63.805 79.5611 64.384L80.0919 65.324C80.4191 65.904 81.2873 65.904 82.031 65.326C82.7748 64.747 83.1124 63.809 82.7852 63.229L82.2544 62.29C81.9281 61.71 81.0603 61.708 80.3162 62.286L80.3146 62.287Z" fill="#3A556A"/>
<path d="M75.0788 65.76C74.3352 66.34 73.998 67.278 74.3253 67.858L74.8561 68.798C75.1834 69.377 76.0515 69.378 76.7953 68.799C77.539 68.221 77.8766 67.282 77.5494 66.703L77.0186 65.763C76.6923 65.183 75.8245 65.181 75.0804 65.759L75.0788 65.76Z" fill="#3A556A"/>
<path d="M69.8423 69.237C69.0987 69.816 68.7615 70.755 69.0889 71.334L69.6197 72.274C69.9478 72.853 70.8165 72.852 71.5594 72.273C72.3012 71.695 72.6381 70.758 72.3125 70.179L71.7817 69.24C71.4547 68.66 70.5866 68.658 69.8423 69.237Z" fill="#3A556A"/>
<path d="M64.606 72.711C63.8624 73.29 63.5252 74.229 63.8525 74.808L64.3833 75.748C64.7115 76.327 65.5801 76.326 66.3231 75.747C67.0648 75.169 67.4018 74.232 67.0762 73.653L66.5454 72.714C66.2184 72.134 65.3503 72.132 64.606 72.711Z" fill="#3A556A"/>
<path d="M59.3701 76.186C58.6265 76.765 58.2893 77.704 58.6166 78.283L59.1474 79.223C59.4756 79.802 60.3442 79.801 61.0872 79.222C61.8289 78.644 62.1659 77.707 61.8403 77.128L61.3095 76.189C60.9822 75.609 60.1141 75.608 59.3701 76.186Z" fill="#3A556A"/>
<path d="M54.1324 79.662C53.3887 80.241 53.0511 81.179 53.3783 81.758L53.379 81.76L53.9098 82.7C54.2379 83.278 55.1066 83.277 55.8495 82.698C56.5913 82.12 56.9282 81.184 56.6026 80.605L56.0718 79.665C55.7448 79.085 54.8767 79.084 54.1324 79.662Z" fill="#3A556A"/>
<path d="M48.8978 83.135C48.154 83.714 47.8164 84.652 48.1436 85.232L48.1443 85.233L48.6751 86.173C49.0033 86.751 49.8719 86.751 50.6149 86.172C51.3566 85.594 51.6936 84.657 51.368 84.078L50.8372 83.138C50.5099 82.559 49.6417 82.557 48.8978 83.135Z" fill="#3A556A"/>
</g>
<defs>
<clipPath id="clip0_1_24">
<rect width="134" height="128" fill="white"/>
</clipPath>
</defs>
</svg>
